<svg width="36" height="36" viewBox="0 0 36 36" fill="none" xmlns="http://www.w3.org/2000/svg">
<g clip-path="url(#clip0_643_821)">
<path d="M33 36H4C8 36 7 27 7 27C7 24.791 8.791 12 11 12H32C32 12 36 12 36 16V33C36 33 36 36 33 36Z" fill="#99AAB5"/>
<path d="M30 33C30 36 33 36 33 36H3C3 36 0 36 0 32V4C0 1.791 1.791 0 4 0H26C28.209 0 30 1.791 30 4V33Z" fill="#CCD6DD"/>
<path d="M27 20C27 20.553 26.553 21 26 21H18C17.448 21 17 20.553 17 20C17 19.447 17.448 19 18 19H26C26.553 19 27 19.447 27 20ZM27 16C27 16.553 26.553 17 26 17H18C17.448 17 17 16.553 17 16C17 15.447 17.448 15 18 15H26C26.553 15 27 15.447 27 16ZM27 12C27 12.553 26.553 13 26 13H18C17.448 13 17 12.553 17 12C17 11.447 17.448 11 18 11H26C26.553 11 27 11.447 27 12ZM27 24C27 24.553 26.553 25 26 25H4C3.448 25 3 24.553 3 24C3 23.447 3.448 23 4 23H26C26.553 23 27 23.447 27 24ZM27 28C27 28.553 26.553 29 26 29H4C3.448 29 3 28.553 3 28C3 27.447 3.448 27 4 27H26C26.553 27 27 27.447 27 28ZM27 32C27 32.553 26.553 33 26 33H4C3.448 33 3 32.553 3 32C3 31.447 3.448 31 4 31H26C26.553 31 27 31.447 27 32ZM25 9C25 9 27 9 27 7V5C27 5 27 3 25 3H5C5 3 3 3 3 5V7C3 7 3 9 5 9H25Z" fill="#99AAB5"/>
<path d="M13 21C13 21 15 21 15 19V13C15 13 15 11 13 11H5C5 11 3 11 3 13V19C3 19 3 21 5 21H13Z" fill="#55ACEE"/>
</g>
<defs>
<clipPath id="clip0_643_821">
<rect width="36" height="36" fill="white"/>
</clipPath>
</defs>
</svg>
