<svg width="36" height="36" viewBox="0 0 36 36" fill="none" xmlns="http://www.w3.org/2000/svg">
<path d="M29 20.729V18.766C30 17.736 31.914 15.876 32.391 13.493C32.533 13.572 32.446 13.623 32.604 13.623C33.362 13.623 33.86 12.64 33.86 11.426C33.86 10.232 33.204 9.265 32.461 9.235C32.604 8.719 32.673 8.029 32.673 7.143C32.673 4.187 30.124 0.638 24.42 0.638C19.352 0.638 16.176 4.187 16.176 7.143C16.176 8.001 16.227 8.705 16.318 9.25C15.621 9.355 15.071 10.283 15.071 11.425C15.071 12.639 15.685 13.622 16.444 13.622C16.601 13.622 16.375 13.571 16.516 13.492C16.993 15.876 19 17.735 20 18.766V20.613C16 21.105 13 23.241 13 25.378V26.188C13 27 13.823 27 14.634 27H33.364C34.177 27 35 27 35 26.188V25.378C35 23.377 32 21.381 29 20.729Z" fill="#55ACEE"/>
<path d="M17 28.729V26.766C18 25.736 19.914 23.876 20.391 21.493C20.533 21.572 20.446 21.623 20.604 21.623C21.362 21.623 21.86 20.64 21.86 19.426C21.86 18.232 21.204 17.265 20.461 17.235C20.604 16.719 20.673 16.029 20.673 15.143C20.673 12.187 18.124 8.638 12.42 8.638C7.351 8.638 4.176 12.187 4.176 15.143C4.176 16.001 4.227 16.705 4.318 17.25C3.621 17.355 3.071 18.283 3.071 19.425C3.071 20.639 3.685 21.622 4.444 21.622C4.601 21.622 4.375 21.571 4.516 21.492C4.993 23.876 7 25.735 8 26.766V28.613C4 29.105 1 31.241 1 33.378V34.189C1 35 1.823 35 2.634 35H21.364C22.177 35 23 35 23 34.188V33.377C23 31.377 20 29.381 17 28.729Z" fill="#226699"/>
</svg>
